<mxfile host="app.diagrams.net" modified="2024-02-22T05:06:40.373Z" agent="Mozilla/5.0 (Macintosh; Intel Mac OS X 10_15_7) AppleWebKit/537.36 (KHTML, like Gecko) Chrome/121.0.0.0 Safari/537.36" version="21.3.2" etag="TrX4w9LowkqvXUThfFe7" type="github">
  <diagram name="Page-1" id="7awIyLr8ezroUhJiLSer">
    <mxGraphModel>
      <root>
        <mxCell id="0" />
        <mxCell id="1" parent="0" />
      </root>
    </mxGraphModel>
  </diagram>
</mxfile>
